<?xml version="1.0" encoding="utf-8"?>
<?xml-stylesheet type="text/css" href="../styleIntro.css"?>
<svg xmlns="http://www.w3.org/2000/svg" viewBox="0 0 1280 1024">

  <g id="background">
    <rect class="cls-bg" width="1280" height="1024"/>
  </g>
  <g id="rectLeft">
    <rect class="cls-1" width="1280" height="1024"/>
  </g>
  <g id="rectRight">
    <rect class="cls-2" x="640" width="640" height="1024"/>
  </g> 
  <g id="lovish">
    <polygon class="cls-3" points="592.42 297.47 605.94 347.87 619.46 336.81 608.4 310.99 602.25 299.93 592.42 297.47"/>
    <polygon class="cls-4" points="578.9 383.51 570.3 379.82 619.46 325.74 619.46 336.81 609.1 373.69 601.02 393.34 578.9 383.51"/>
    <path class="cls-5" d="M460.13,226.71c-1,.75-3.28,3.84-4.64,16.66-.07.66-.11,1.33-.15,2-.08,1.46,0,9.07,0,9.07h0V266l-1.31,2.45a.88.88,0,0,0,.48,1.24c2,.82,6.89,2.53,9.63,1.25,3.52-1.65,0-1.65,0-3.29V266c0-1.64-1.76,0-1.76-1.64s3.52-1.65,1.76-3.29-5.28-4.94-3.52-4.94,8.81-3.29,8.81-4.93-8.81-6.58-8.81-9.87,1.76-4.94,3.52-6.58,1.76-3.29,1.76-4.93c0-1.38-3.71-2.76-4.91-3.17A1,1,0,0,0,460.13,226.71Z"/>
    <polygon class="cls-3" points="519.9 421.61 518.67 399.49 601.02 363.85 622.75 390.34 524.82 431.44 519.9 421.61"/>
    <path class="cls-3" d="M457.22,207.75s-4.44,24.18,3.31,33S601,363.84,601,363.84l16.43-114.5S515,157.36,457.22,207.75Z"/>
    <path class="cls-6" d="M511.26,222.47s29.85-2.7,40,9.2c0,0,3.33-3,6,3.62s8.54,11.79,5.44,11.57-1.56-.11-7.88,1c0,0,24.86,1.74,29.29,5.25s-4.66-.33-6.21-.44,3,1.81,3,1.81l-.11,1.59-3-1.81s6,3.62,4.44,3.51l-4.67-.32a1.54,1.54,0,0,1,1.45,1.7c-.11,1.59,2.88,3.4,2.88,3.4l-1.55-.11,4.44,3.51-1.56-.11-3.44,4.55s-.22,3.18,1.33,3.29l1.55.11,1.45,1.7L582.38,277h0l1.44,1.7-.22,3.19s1.44,1.7-.11,1.59-.22,3.18-3.33,3,7.77.55,3,1.81-4.89,2.86-3.33,3,1.55.11,3,1.81a5,5,0,0,1,1.33,3.29l10.66,3.94,6,3.62,1.55.11,5.21,37.14s-31,41-71.49,62.15c-16.1,6.87-39.07.46-39.07.46A54,54,0,0,1,486.24,379l-10-13.49,13.46-125.38Z"/>
    <path class="cls-7" d="M480,366.29h7.05l1.26-.56,1.48-.39-1,2.6-5.29,3.29S480,367.94,480,366.29Z"/>
    <path class="cls-8" d="M492.09,288s.26,4.31,2,4.31,10.57,1.65,10.57,1.65h1.76s1.76-1.65,1.76,0a3.67,3.67,0,0,0,3.52,3.29c1.76,0,1.76,3.29,10.57,3.29s21.13-3.29,24.65-6.58,3.53-4.94,3.53-4.94l-1.76-1.64A49.36,49.36,0,0,0,561,285.69c5.29-1.64,8.81-8.22,8.81-8.22s1.76-6.58,0-6.58c0,0-12.33-6.58-22.9-6.58s-35.22,1.64-44,4.93L490,270.49l-1.2.4v1.64l3.52,3.29,0,1,.08,2-1.89,1.9,1.81,1.95Z"/>
    <path class="cls-9" d="M529.33,285.69l-6.26.05-2.54-.05a96,96,0,0,1,20.93-1.8l7.25-1.49,0,1.42-3.49,3.52s-10.56,9.87-15.85,8.22S529.33,285.69,529.33,285.69Z"/>
    <path class="cls-10" d="M504.68,280.76h3.52s0,3.29,1.76,3.29,5.28,1.64,5.28,1.64-5.28,1.65-3.52,6.58,22.9,4.94,28.18-1.64,5.28-3.29,5.28-3.29l3.53,1.64s-3.53,11.52-24.66,11.52c0,0-12.33-1.65-15.85-4.94s-13.42-3-13.42-3-4.72-3.63-2.69-6.07S502.92,287.34,504.68,280.76Z"/>
    <path class="cls-11" d="M515.24,293.92l3.53,1.64a1.65,1.65,0,0,0,1.76,1.65h1.76c1.76,0,0-1.65,0-1.65h1.76l1.76,1.65,1.76-1.65,3.52-1.64-3.52-1.65s-5.28,0-7-1.64V289l-1.74.83,0,.82-4,2.55Z"/>
    <polygon class="cls-12" points="471.22 343.26 471.22 344.91 472.98 348.2 476.5 358.07 480.02 354.78 481.78 354.78 483.55 353.13 478.26 349.84 478.26 348.2 478.26 348.2 471.22 343.26 471.22 343.26"/>
    <path class="cls-13" d="M490.59,348.2a2.18,2.18,0,0,1,0-3.29c1.76-1.65,5.28-1.65,5.28-1.65a9.08,9.08,0,0,1,7.05,0s7,1.65,10.56-1.64l1.75-2-21.12.34-5.28,1.65-1.76,3.29-1.76,1.64Z"/>
    <polygon class="cls-14" points="478.26 308.72 474.74 308.72 467.69 318.59 469.46 333.39 471.22 331.75 474.74 320.24 478.26 308.72 478.26 308.72"/>
    <path class="cls-15" d="M467.68,304.69l-1.75,5.68v8.22h0s1.76,16.45,3.53,18.09V335l1.76-1.65-1.76-1.64,1.76-3.29-1.76-1.65v-1.64l1.76-1.65-1.76-1.64v-1.65s0-1.64,3.52-6.57c1.15-1.62,2.26-3,3.15-4.12,1.82-2.33,2.7-3.61,1.06-3.81C474.74,305.43,467.68,304.69,467.68,304.69Z"/>
    <path class="cls-5" d="M465.93,233.05l3.53-1.64s3.52,6.58,8.8,4.93,10.57-1.64,14.09-3.29,14.09-9.86,17.61-9.86,3.52,1.64,3.52,1.64-15.85,11.51-12.32,11.51A37.88,37.88,0,0,1,510,238s-5.28,3.29-3.52,3.29,8.8,3.29,8.8,3.29v3.29s-3.52,0-1.76,1.64-3.52,4.94-3.52,4.94-7,4.93-8.8,6.58-14.09,9.87-12.33,11.51,5.28,4.94,3.52,6.58,1.76,4.94,0,8.23-7,4.93-7,6.58-1.77,13.16-3.53,14.8,0,3.29-1.76,4.94c0,0,0,3.29-1.76,4.93L473,323.52s3.52-18.09,7-23-.74-12.34-1.25-11.93-21.64-21-19.88-32.49A133.23,133.23,0,0,0,460.65,238Z"/>
    <path class="cls-16" d="M481.78,298.85s-5.28,0-7,1.65,3.13,3.15,3.13,3.15Z"/>
    <path class="cls-17" d="M474.74,300.5l5.28-1.65,1.76-1.64-.47-1.48L473,297.21h-7.05l1.76,4.93v1.65a1.65,1.65,0,0,0,1.77,1.64,1.65,1.65,0,0,1,1.76,1.65h3.52c1.76,0,3.52-3.29,3.52-3.29l-3.52-1.65Z"/>
    <path class="cls-18" d="M473.86,291.44s6.16-.81,7.92,2.48-7,3.29-7,3.29Z"/>
    <path class="cls-19" d="M460.65,290.63s10.57-4.94,20.5,1.77c0,0-11.69-3.42-18.74,1.52Z"/>
    <path class="cls-20" d="M457.13,285.69a23.68,23.68,0,0,0,3.52,4.94h0a21.9,21.9,0,0,1,15.85,0c8.81,3.29,5.28,1.64,5.28,1.64S471.22,277.47,457.13,285.69Z"/>
    <path class="cls-21" d="M453.61,269.24s1.76,3.29,3.52,3.29,5.28,1.65,5.28,1.65,5.28,1.64,5.28,3.29,1.77,4.93,1.77,4.93l5.28,3.29,5.28,1.65s-5.28-1.65-5.28-3.29,0-8.23-3.52-11.52S453.61,269.24,453.61,269.24Z"/>
    <path class="cls-22" d="M453.61,269.24s0,3.29-1.77,4.94,0,8.22,0,8.22,1.77,3.29,3.53,3.29,5.28-1.64,8.8-1.64,8.81,1.64,12.33,3.29,3.52,3.29,3.52,3.29a7.19,7.19,0,0,0-5.28-6.58c-5.28-1.65-5.28-9.87-7.05-9.87S453.61,269.24,453.61,269.24Z"/>
    <path class="cls-23" d="M462.41,293.92s0,3.29-1.76,3.29,1.76,1.64,3.52,1.64,1.76-1.64,3.52-1.64c0,0,3.53,3.29,7.05,0,0,0,1.36-5.35-2-5.84C467.69,290.63,462.41,293.92,462.41,293.92Z"/>
    <path class="cls-5" d="M465.93,264.31h3.53l3.52-1.65v1.65l3.52-1.65v-3.29l1.76,1.65,1.76,1.64V266l-1.76,3.29v4.94l-1.76,1.64-1.76,3.29-3.1-5.8-5.07-2.52-1.9-1.78-1-3.55Z"/>
    <path class="cls-5" d="M473,323.52v1.65s-7.05,11.51-1.76,18.09,14.09,4.94,14.09,4.94l5.28-6.58,3.52-1.65h3.52l7.05,1.65a9.06,9.06,0,0,0,7,0c3.52-1.65,5.29-3.29,5.29-4.94s-5.29-11.51-8.81-11.51-5.28-1.65-5.28,0-1.76,1.64-3.53,0-5.28-6.58-5.28-8.22,0-8.23,1.76-8.23,1.76,0,3.52,1.65,1.77,0,3.53,0h7c1.76,0,3.52,1.64,3.52,0s-1.76,0-1.76-1.65-1.76-1.64,0-3.29,5.29-3.29,1.76-3.29-7,0-7-1.64v-4.94c0-1.64-12.33-3.29-12.33-3.29h-7s-2.63-.89-2.2,5.31l-2,9.18-1.11,2-.47.71-.24.74-.12.33V311l-.08.45v.66l-.35,1-.44.49-.08.77-.12,1-.32,1.15-.91,1.77Z"/>
    <path class="cls-24" d="M481.78,326.81,480,328.46s1.76,0,1.76,1.64L480,331.75a1.65,1.65,0,0,0,1.76,1.64,1.65,1.65,0,0,1,1.76,1.65s-1.76,1.64,0,1.64,5.29,1.65,8.81,0a14.1,14.1,0,0,1,7-1.64h1.77v1.64l-3.53,1.65h-7L487.07,340h-3.53c-1.76,0-5.28-1.64-5.28-1.64s-1.76-3.29-1.76-4.94,0-3.29,1.76-4.93A5.63,5.63,0,0,1,481.78,326.81Z"/>
    <path class="cls-25" d="M472.8,325.86l3.7-2.34v6.58s-1.76,4.94,0,6.58L480,340s-1.76,0,0,1.65,5.29,4.93,3.52,4.93S460.65,348.2,472.8,325.86Z"/>
    <path class="cls-15" d="M474.74,315.3l1.34-5.13.42-1.45-7,8.23v9.86l-.28,4.31.56.44-.4.07.48.37-.36-.25.63.25a37.84,37.84,0,0,1,2-5.18,7.65,7.65,0,0,0,.9-3.3Z"/>
    <polygon class="cls-26" points="488.83 366.29 487.07 371.23 488.83 371.23 488.83 369.58 494.11 367.94 490.59 366.29 488.83 366.29"/>
    <path class="cls-27" d="M483.9,348.56a7.4,7.4,0,0,1,6.69-.36v1.64l-3.52,1.65h-1.76Z"/>
    <path class="cls-28" d="M478.26,348.2a2.18,2.18,0,0,0,0,3.29c1.76,1.64,5.28,0,3.52,1.64a5,5,0,0,0-1.76,3.29v1.65l1.76,1.64,5.29-4.93v-1.65l2-2.4-2,.76h-1.76l-1.77-3.29-.73.24-1.82-.15-1.43-.15-1.08-.3Z"/>
    <path class="cls-29" d="M492.35,353.13s7-1.64,7,0-1.76,3.29-1.76,3.29l-3.52,1.65h-1.76l1.76-3.29Z"/>
    <path class="cls-30" d="M502.92,351.49s3.52,0,3.52,1.64-1.76,3.29-1.76,3.29h-3.52l-7.05,1.65,1.76-1.65,1.76-1.64h1.76C501.16,354.78,504.68,353.13,502.92,351.49Z"/>
    <path class="cls-31" d="M480,364.65s-.66-3.29,1.76-4.94,7.93-1.64,8.81,0h0l1.76,1.65s3.52-4.94,8.81-4.94,15.85-1.64,21.13,8.23c0,0-7-4.94-14.09-3.29,0,0-7-3.29-8.81-1.65h0l-3.52,1.65L492.35,363l-3.52-1.64Z"/>
    <polygon class="cls-32" points="476.5 358.07 476.5 361.36 476.5 366.29 483.55 372.87 481.78 369.58 480.02 366.29 480.02 361.36 481.78 358.07 480.02 354.78 476.5 358.07"/>
    <path class="cls-33" d="M488.83,366.29s2.76-2,6.66.65c0,0,2.14,1,7.43-2.29h12.32l2.52-.59h3.09s-.32,2.23-2.08,2.23h-5.29l-10.56,3.29h-3.53s-5.28,0-7-1.64A5.63,5.63,0,0,0,488.83,366.29Z"/>
    <path class="cls-34" d="M481.91,361.83l.82-.51a4.53,4.53,0,0,1,4.78,0,9.65,9.65,0,0,0,4.84,1.64s5.28-3.29,8.81-3.29,14.08,1.65,22.89,4.94c0,0-5.28-1.65-8.81,0H504.68l-4.54,2.12a6,6,0,0,1-5,0l-1.43-.67a8,8,0,0,0-5.9-.34,9.07,9.07,0,0,1-2.49.53c-.95,0-4.14.88-5.29,0C479.11,365.59,480.92,362.44,481.91,361.83Z"/>
    <path class="cls-14" d="M499.39,367.94"/>
    <path class="cls-35" d="M487.07,292.27l3.52-3.29c1.76-1.64,1.76,3.29,3.52,3.29Z"/>
    <path class="cls-36" d="M513.48,293.92l5.29-3.29V289h-3.53v-1.64s-3.52,1.64-3.52,4.93A1.65,1.65,0,0,0,513.48,293.92Z"/>
    <path class="cls-18" d="M529.33,285.69h8.81a14,14,0,0,1-12.33,6.58c-8.8,0-1.76-4.93-1.76-4.93l5.28-1.65Z"/>
    <path class="cls-37" d="M515.24,287.34,513.48,289H517v1.65l3.52-1.65v1.65s7,4.93,8.8-1.65v-4.93l-8.8,1.64s-3.52,0-5.29,1.65Z"/>
    <path class="cls-38" d="M508.2,280.76h5.28s5.29,0,15.85-4.94,21.14-4.93,33.46-3.29l3.53,1.65,1.76,3.29.4,1.91-3.92,3-12.33,4.94L548.71,289l-1.77-1.64h-1.76l1.76-1.65,1.77-1.64V282.4s-3.53,1.65-12.33,1.65-17.93,1.12-23.06,3S508.2,280.76,508.2,280.76Z"/>
    <path class="cls-39" d="M538.14,287.34q5.28,2.46,5.28,0c0-1.65,0,0,1.76-1.65l3.53-3.29s-15.43,2.37-19.17,2-10.14,1.18-10.14,1.18,15.22-1.54,18.74.1Z"/>
    <path class="cls-40" d="M490.59,275.82s0-6.58,5.28-8.22,52.84-8.23,68.69,1.64l1.76,1.65-61.64,9.87-12.35-4.33-1.74-.61Z"/>
    <path class="cls-41" d="M488.83,353.13s1.76-1.64,1.76,0v3.29l-1.76,1.65-3.52,1.64L480,361.36l1.13-2.19h.63l4.76-3.7.53-2.34Z"/>
    <path class="cls-42" d="M524.05,364.65l-1.76,1.64s0,3.29,1.76,1.65,0-1.65,1.76-1.65h3.52L524.05,363Z"/>
    <path class="cls-43" d="M488.81,367.56a5.5,5.5,0,0,0-5.58,2.67c-.69,1.31-.67,3,2.15,4.29,6.56,3.09,6.95,4.73,17.23,4.91a5.92,5.92,0,0,0,3.63-1.14c7.88-5.81,12.74-8.81,16-10.35,3.52-1.65,1.76-1.65,1.76-1.65s-3.52-3.29-5.28-1.64c-1.39,1.29-7.12,1.57-9.51,1.63a5.47,5.47,0,0,0-2,.42c-2.1.84-7.05,2.71-9.69,2.78C495.12,369.55,491.8,367.94,488.81,367.56Z"/>
    <path class="cls-44" d="M490.59,367.94s-1.76,4.93-1.76,6.58,1.76,0,1.76-1.65v-1.64A4.53,4.53,0,0,1,492,368.3Z"/>
    <path class="cls-44" d="M494.11,369.58l-1.76,3.29v4.94l1.76-3.29h0s1.76,1.64,1.76,0,1.76-3.29,1.76-3.29-3.52,0-3.52,1.64Z"/>
    <polygon class="cls-14" points="497.63 374.52 497.63 372.87 495.87 374.52 495.87 377.81 497.63 379.45 497.63 374.52"/>
    <path class="cls-44" d="M501.16,369.58v8.23l1.76-1.65v-3.29Z"/>
    <path class="cls-44" d="M504.68,374.52l1.76-1.65h1.76l1.76-1.64,1.76-1.65H510l1.76-1.64,3.52,1.64,1.77-1.64v1.64c0,1.65-3.53,3.29-3.53,3.29l-5.28,3.29a2.55,2.55,0,0,1-3.52,0,2.18,2.18,0,0,1,0-3.29l1.76-1.64,1.76,1.64h0Z"/>
    <path class="cls-45" d="M513.48,353.13c0,1.65,1.76,3.29,1.76,3.29Z"/>
    <polygon class="cls-14" points="509.96 353.13 508.2 354.78 506.44 354.78 507.14 356.36 509.96 356.42 509.96 356.42 509.96 353.13 509.96 353.13"/>
    <polygon class="cls-46" points="529.33 353.13 529.33 356.42 529.33 358.07 532.86 359.71 531.1 358.07 529.33 353.13"/>
    <path class="cls-3" d="M575.21,226.19v7.37L578.9,236l-1,30.14L601,299.93l24.59-52.85s-8.61-45.48-27-61.45-36.88-20.9-36.88-20.9S511.3,158.59,483,181.94s-27,24.58-27,24.58l1.23,1.23,18.44-12.29-8.61,41.79H515l12.29-47.94s50.39,2.46,47.93,14.75-3.68,12.29-3.68,12.29v4.92Z"/>
    <path class="cls-47" d="M605.94,200.37,601,211.44s10.62,11.35,13.92,37,11.9,6,11.9,6S620.69,206.52,605.94,200.37Z"/>
    <path class="cls-48" d="M548.79,420.14l11.94-8.85,41.38-37.39S580.13,428.5,548.79,420.14Z"/>
    <path class="cls-5" d="M513.48,224.83s8.81-3.29,14.09,0,5.29,6.58,5.29,6.58l-5.29,4.93h17.61s7.05,0,5.29,1.65-3.53,8.22-5.29,9.87a70.64,70.64,0,0,1-7,4.93l1.76,3.29,3.52,3.29L554,262.66s4.93,2.31.7,2.8-37.68-1.15-51.77,3.78S487.17,272,487.17,272l5.18-11,5.28-18.1Z"/>
    <path class="cls-49" d="M614.54,460.94s-2.45-3.68,4.92-9.83,1.89-10.95,1.89-10.95l3.21-.11,1.05,12.29s-2.46,16-3.69,18.44-2.46,6.14-3.69,7.37-2.46,4.92-2.46,3.69,1.23-3.69,0-8.61c0,0-29.49,20.9-30.72,23.36s1.23,8.6,1.23,8.6-2.46,12.29,0,12.29S601,518.71,601,518.71h1.23l12.29,1.23,6.15,1.23,7.37,9.83s2.46,7.38,6.15,8.61,2.46,8.6,2.46,8.6a5.39,5.39,0,0,1-3.69,1.23c-2.46,0-14.75-7.38-14.75-7.38v29.5l-23.35,6.15v-1.23S558,593.69,543.26,607.21s-13.52,8.6-13.52,8.6V603.52l23.35-25.81-16.91-9.12s9.53-26.53,28-41.27c0,0,1.23-14.75,8.61-25.82S614.54,460.94,614.54,460.94Z"/>
    <path class="cls-50" d="M784.16,414.24s47.94,47.93,33.19,103.24L810,518.71,778,414.24l2.46-2.46Z"/>
    <path class="cls-14" d="M741.34,419.55c-.05-.38,1.22-.6,3.2-.72,6.62-.4,21.18.32,21.18.32s20.9,45.48-1.23,98.33h-9.83Z"/>
    <path class="cls-51" d="M655,423.46S674.77,402,692,402s49.16,14.75,54.08,20.89,19.66,33.19,12.29,68.83c-1.23,22.13-4.92,24.58-4.92,24.58s.69,4.18-.88,4.55c-.85.2-11.57-2.89-20-9.46-7.15-5.56-12.29-14.75-12.29-14.75s-9.84-8.61-11.06-9.84-54.09-51.62-54.09-51.62Z"/>
    <path class="cls-52" d="M703,441.28s9.83-8.61,13.52,0,4.92,45.47,3.69,46.7-9.74,1.41-9.74,1.41,1.13-26-9.93-46.88Z"/>
    <path class="cls-53" d="M692,402s29.5-7.38,35.64-2.46,24.58,16,24.58,16,1.23,2.46-8.6,2.46S692,402,692,402Z"/>
    <path class="cls-54" d="M517.37,476.44s-6.81-7.88,40.27-32c0,0,9-8.11,21.26-6.88s-50.39,32-50.39,32l-9.84,8.6Z"/>
    <path class="cls-55" d="M533.42,454.8l12.29-7.38a55.31,55.31,0,0,0,9.84-7.37l4.91,2.46-24.58,14.75Z"/>
    <path class="cls-56" d="M614.54,371.22l9.53-4.24a1.25,1.25,0,0,1,1.74,1l2.25,6.94c.06.4-2,4.48-2.45,3.68L617,387.2c-.8.72-2.46-1.72-2.46-2.8V371.22Z"/>
    <path class="cls-57" d="M519.9,421.61s18.44-3.68,30.73-1.23h6.15l7.37-2.45,14.75-11.07,2.19-.44-28,36.09-20.9,11.06S517.45,443.74,519.9,421.61Z"/>
    <path class="cls-58" d="M615.77,387.2l12.29,4.91L578.9,437.59s-6.14-2.46-13.52,3.69-9.83,0-9.83,0a62.07,62.07,0,0,1,14.75-23.35c11.06-11.07,12.29-13.52,12.29-13.52l16-17.21,7.37-27s27-28.27,17.21-49.17l6.14,2.46L623.15,343Z"/>
    <path class="cls-59" d="M614.54,370v-9.83s9.84-17.21,11.07-20.9,8.6,13.52,8.6,13.52l2.46,8.61-6.15,7.37-16,3.69Z"/>
    <path class="cls-60" d="M655.1,370l.27.14C658,371.54,686.29,387,693.21,402L662.48,413l-34.42-20.9L617,387.2l11.06-11.06s-1.22-7.38-1.22-8.61,16-14.75,16-14.75S653.88,366.3,655.1,370Z"/>
    <path class="cls-61" d="M657.56,381.05s20.9,18.44,23.36,18.44,4.91,2.46,4.91,2.46l-19.42,8.45-24.83-25.66S644,376.14,657.56,381.05Z"/>
    <path class="cls-62" d="M632.05,390.9c1.62-2.27,4.49-5.4,8.3-6.16h0l31.94,22.12,2.47,2.46-6.15,7.38-4.22-3.94c-.14-.05-23.75-9.89-31.88-17.21A3.51,3.51,0,0,1,632.05,390.9Z"/>
    <path class="cls-63" d="M666.17,414.24c-1.23-1.23-39.33-20.9-39.33-20.9s-11.07,8.61-29.5,17.21-18.44,24.58-18.44,24.58v2.46l66.37-4.92Z"/>
    <path class="cls-64" d="M668.62,558a48.37,48.37,0,0,0,7.38-2.46c2.46-1.22,102.31-6.14,107.08-10.44s12.14-16.6,13.37-20.28,0-2.46,0-2.46-36.87,3.69-54.08-4.92S719,491.67,719,491.67l-1.23-2.46-34.27-2.41,7.23,6.1s-1.23,45.48-43,63.91C647.73,556.81,664.94,555.58,668.62,558Z"/>
    <path class="cls-65" d="M727.62,532.23s36.87,4.92,56.54-4.91l1.23-1.23s-40.56,7.37-57.77,3.68h-4.91Z"/>
    <path class="cls-66" d="M629.29,440.05s13.52-11.06,22.13-18.44l3.68-1.23,1.23,18.44-11.06,12.29-8.87.66Z"/>
    <path class="cls-67" d="M705.59,459c-.09-.47,6,4.44,6,13.05v3.68h0v1.23h-2.45Z"/>
    <path class="cls-68" d="M655.1,436.36a76,76,0,0,1,14.75,0c6.25.61,16.85,2.63,18.44,3.69,12.36,8.24,16,16,16,16A63.88,63.88,0,0,1,708,467.09c1.51,7.34,1.74,15.06,2.45,17.21l-.12,4-5.75-.44L655.1,440.05Z"/>
    <path class="cls-69" d="M635.44,454.8s4.92-6.15,7.37-4.92S644,469.55,644,469.55l-.78,1.18-10.18,1.62Z"/>
    <path class="cls-70" d="M682.15,488l8.6,4.92s-4.92,51.62-43,63.91S682.15,488,682.15,488Z"/>
    <path class="cls-71" d="M645.47,543.59s5.95,4.62,9.63,2.16,25.82-14.75,28.27-60.22l-14.75-1.23Z"/>
    <path class="cls-72" d="M645.27,511.34l9.83,7.37L645.27,472s18.44,2.45,23.35,12.29,3.69,40.56-8.6,49.16c0,0-23.09,22.44-26.65,5.56-.39-1.87-12.68-17.85-12.68-17.85l.44-5.9Z"/>
    <path class="cls-73" d="M640.36,489.21s11.06-11.06,13.52-8.6,7.37,19.67,4.91,28.27-3.69,9.83-3.69,9.83l-9.83-7.37Z"/>
    <path class="cls-74" d="M641.58,490.44s1.23-4.91,3.69,0,2.46,14.75,0,20.9-3.69,7.37-9.83,8.6a15.16,15.16,0,0,1-13.87-5.33C615.77,507.65,641.58,490.44,641.58,490.44Z"/>
    <path class="cls-75" d="M622.46,493.88s8.06-23.1,20.35.25c1.23,13.52-3.68,19.67-3.68,19.67s-10,6.09-16.67-6.79C620.69,495.36,622.46,493.88,622.46,493.88Z"/>
    <path class="cls-76" d="M630.13,473.09S644,469.55,644,470.78v2.45c0,1.23-7.37,7.38-7.37,7.38L633,483.07s-9.83,2.46-11.06,12.29,1.23,14.75,1.23,14.75l-1.23,3.69s-6.83-4-4-18,9-16.42,9-16.42Z"/>
    <path class="cls-77" d="M794,529.77,819.8,563s13.52,49.16,20.9,59,8.6,17.2,14.75,20.89c0,0-1.48,3.39-6.88,3.54s-15.25-2.31-22.62-23.21S794,529.77,794,529.77Z"/>
    <path class="cls-78" d="M821,580.17s8.61,43,17.21,51.62L830.87,622s0,3.68,3.68,13.52,14.75,11.06,14.75,11.06l-4.91,1.23s2-1.06-3.69,1.23c-6.15,2.45-6.15,1.23-6.15,1.23l-7.33,2.09a1.66,1.66,0,0,1-1.91-.8l-3-5.42L818.58,633Z"/>
    <path class="cls-79" d="M795.22,545.75l20.9,29.5s-1.33,23.5-8,17.9-9.42-39.73-14.82-46-10.18-2-10.18-2l7.23-6.76Z"/>
    <path class="cls-80" d="M742.37,649s-7.37,8.6-4.92,8.6,9.84-2.46,12.3-3.69,18.43-8.6,18.43-11.06-.78-5.65-3.46-5.9S746.06,645.31,742.37,649Z"/>
    <path class="cls-81" d="M647.73,561.73s14.75-7.37,14.75-3.69a314.51,314.51,0,0,0,6.14,50.4c4.92,23.35,11.07,35.64,11.07,35.64l7.37,11.06h0v3.69s-20.89-2.46-36.87-8.6l-1.23-32,1.23-4.92,1.23-2.46,1.23-1.23,2.45-2.45,3.69-1.23,2.46-1.23s.84-3.25,1-4.08-3-1.43-2.65-2.36-11-9.88-13.28-36.14Z"/>
    <path class="cls-82" d="M624.38,440.05s12.29-2.46,12.29,2.46,0,18.43-3.69,23.35-3.69,13.52-4.92,14.75-9.83,9.83-9.83,11.06-1.23,14.75,0,16,2.46,6.15,2.46,6.15,3.69,11.06-9.83,7.37-27-1.23-27-1.23V500.28s7.67-3.69,11.21-4.92,4.81-4.52,12.16-8.41,10.11-4.72,10-5.53,4.77-9.41,4.77-9.41l1.87-7.85.59-10.59Z"/>
    <path class="cls-83" d="M618.23,544.52s-7.37,36.88,18.44,62.69l7.37,7.37,16-11.06s3.69-2.46,1.23-3.69S644,580.17,646.5,559.27s0,1.23,0,1.23v-8.6l-28.27-9.84Z"/>
    <path class="cls-84" d="M641.58,551.9s-16-4.92-17.2-4.92-1.23,18.44-1.23,18.44,2.46,14.75,3.69,16,11.06,30.72,18.43,29.49,13.52-8.6,13.52-8.6v-2.46S649,590,646.5,581.4s-3.69-28.27-3.69-28.27Z"/>
    <path class="cls-85" d="M549.4,599.83s43-25.81,47.94-23.35,12.29,33.18,13.52,33.18-22.13,1.23-30.73,13.52c0,0-7.37-4.91-24.58,0s-29.5,8.61-29.5,8.61-.25-1-3.81-2.36S549.4,599.83,549.4,599.83Z"/>
    <path class="cls-86" d="M593.4,578.84l-18.19,12.39-14.75,9.83-9.83,11.06s-1.23,3.69,6.15,2.46,22.12,0,22.12,1.23-1.23,3.69-1.23,4.92,7.38-3.69,11.06-6.15,13.52-9.83,16-9.83,3.2,1.62,3.44.2S593.4,578.84,593.4,578.84Z"/>
    <path class="cls-87" d="M517.45,443.74l2.45-9.84h1.23s1.23,7.38,2.46,7.38,1.23,4.91,1.23,4.91L515,458.49l-6.15,4.91-2.46,7.38-2.45,6.14-1.23,4.92L497.78,488l-1.23,4.92s-7.37,2.46-11.06,8.6-4.92,12.3-2.46,16-3.69,1.23-3.69,1.23a3.46,3.46,0,0,1-1.23-2.46c-.47-3.81,0-10.62,2.46-12.29,3.69-2.46,4.92-9.83,8.61-16s4.91-17.2,11.06-23.35a71.72,71.72,0,0,0,9.83-12.29Z"/>
    <path class="cls-88" d="M516.22,442.51s1.23,1.23-4.92,8.6-14.75,17.21-17.21,23.35l-4.91,12.29s2.45-13.52,6.14-18.43"/>
    <path class="cls-88" d="M495.32,468.32S505.15,451.11,515,445l1.23-2.46V445l-1.43,2s-9.64,14-12.09,15.19-7.3,9.81-7.3,9.81l-4.21,11.8s-2,4.2-2,3S489.18,483.07,495.32,468.32Z"/>
    <path class="cls-89" d="M492.86,474.46s-3.68,8.61-3.68,11.07-3.69,7.37-3.69,8.6-8.6,12.29-8.6,12.29l-6.15-1.23a57.23,57.23,0,0,1,2.46-6.14c1.23-2.46,7.37-4.92,11.06-9.84S492.86,474.46,492.86,474.46Z"/>
    <path class="cls-90" d="M470.74,506.42s9.78-2.8,14.11-10.62-6.74,11.85-6.74,13.08-2.45,7.37,1.23,9.83,9.84-1.23,11.07-2.46S503.93,504,502.7,494.13c-2.46-7.38-4.58-5.19-4.58-5.19s.89,2.73,4.58-1a73,73,0,0,1,13.52-9.83c2.45-1.23,12.29-9.83,13.52-11.06s6.14-6.15,8.6-6.15,14.75-4.91,17.21-6.14,16-14.75,16-14.75l16-3.69-1.22,2.46s-17.21,14.75-20.9,17.21-13.52,9.83-18.44,12.29-17.2,9.83-20.89,12.29-20.9,11.06-19.67,12.29-1.23,12.29-3.68,14.75,14.75-11.06,16-11.06,9.84-7.38,30.73-18.44h1.23s-22.12,18.44-22.12,19.67-6.15-1.23-8.61,1.23-6.14,6.14-4.91,8.6-7.38,7.37-7.38,7.37L488,532.23s1.23,1.23-1.23,3.69-6.15,0-6.15,0Z"/>
    <path class="cls-91" d="M503.43,506.86s11.56-10.27,17.7-16.42,24.58-19.66,25.81-19.66,18.44-11.07,25.82-13.52l3.68-1.23,4.92-1.23-29.5,22.12-1.23,1.23H549.4S522.12,494.52,516.71,498,503.43,506.86,503.43,506.86Z"/>
    <path class="cls-92" d="M503.93,506.42l13.37-11.95s13.67-13.86,21-18.78,25.27-14,25.27-14,23.89-10.62,25.12-11.85S601,440.05,601,440.05h-6.14s0,2.46-1.23,3.69-4.92,7.37-11.06,6.14-7.38-3-9.83.35-21.24,15.34-21.69,15.48-43.46,24.73-44.69,27.19C506.38,492.9,506.38,505.19,503.93,506.42Z"/>
    <path class="cls-93" d="M471.69,509.74s0,.15,0,.43c-.3,3.12-2,22.36-.91,25.75,1.23,3.69,0,20.89,1.23,22.12s4.92-1.23,4.92-1.23,0-8.6,1.22-12.29a55.07,55.07,0,0,0,2.46-9.83C480.57,533.46,471.69,509.74,471.69,509.74Z"/>
    <path class="cls-94" d="M480.57,535.92s-2.46,9.83-3.68,9.83,1.22,8.61,0,9.83S472,558,473.2,559.27s3.69,1.23,6.14-3.69,3.69-6.14,3.69-7.37,2.46-8.6,2.46-8.6l0-2.66S480.57,537.15,480.57,535.92Z"/>
    <path class="cls-95" d="M483,516.25s0,4.92,3.69,1.23,8.6-8.6,9.83-11.06,3.69-8.6,3.69-12.29-7.38,3.69-7.38,3.69S481.8,508.88,483,516.25Z"/>
    <path class="cls-94" d="M483,513.8s0-7.38,11.06-16h1.23s-4.91,14.75-11.06,18.43H483Z"/>
    <path class="cls-96" d="M485.29,507.53s8.73-11.48,11.84-13.06c4.34-4,3.11,2.12,3.11,2.12s-2.46,8.6-3.69,9.83-6.14,8.6-7.37,8.6,0,1.23-2.46,2.46-2.76,1.33-2.76,1.33l.3-.1,0,.6s4.94-.6,7.39-4.29,8.78-7.38,9.92-13.52,2.12-8.38-.83-11.56-1.71,1.73-1.71,1.73l1.23,1.23h-3.69a23.74,23.74,0,0,0-10.82,8.6c-3.93,6.15-4.37,9.76-3.53,14.1l.83,1.88v-6.14l1.05-1,.49-1.6Z"/>
    <path class="cls-97" d="M525.57,447.69l1.33,2.66a1.14,1.14,0,0,1-.23,1.33c-2.66,2.48-13.07,12.51-14.14,17.87-1.23,6.14,0,9.83-1.23,11.06-1.06,1.06-8.54,6.7-10.56,8.22a.92.92,0,0,1-.87.16c-.45-.19-1.27-.19-2.09,1.45l1.82,2-1.44-.58a1.09,1.09,0,0,1-.61-.6c-.3-.74-.57-2.36,1.31-4.28,2.61-2.65,3.84-2.65,3.84-5.11,0-2.3,5.29-15.57,6-17.27a1.21,1.21,0,0,1,.2-.33l14.84-16.79A1.14,1.14,0,0,1,525.57,447.69Z"/>
    <path class="cls-98" d="M526.56,453.14l.37,4.06a5.79,5.79,0,0,1-2.71,5.48c-3,1.87-7.23,5-8,8.1a13,13,0,0,0-.18,6.91.65.65,0,0,1-.27.75L512,480.8a.65.65,0,0,1-1-.59,44,44,0,0,1,1.4-8.45c1.27-4.48,5.44-12.35,13-19.06A.67.67,0,0,1,526.56,453.14Z"/>
    <path class="cls-99" d="M492.86,470.78s-3.68,9.83-4.91,11.06-6.15,8.6-7.38,9.83l-7.89,7.89-3.17,3.17c-1.23,1.23,0,3.69,0,4.92s-2.46,1.23-2.46,1.23,1.23,6.14,0,7.37-1.23,3.69-1.23,3.69L468.28,531v13.52l1.23,3.69s1.23,1.23,1.23-1.23,1,1.16.5-9.25l-.77-2.33,1.5-25.29-1.23-3.69L472,501.5l7.37-7.37,5.88-6.22,3.83-6.19,4.21-9.67,2.54-4.46Z"/>
    <path class="cls-99" d="M527.9,450.88l4.51,7.21a2,2,0,0,1-.54,2.69,32,32,0,0,0-3.36,2.62c-1.23,1.23-1.23-.32-1.23-.32l-.5-8.15c0-.11,0-.23,0-.34l.4-3.54A.38.38,0,0,1,527.9,450.88Z"/>
    <path class="cls-100" d="M518.67,433.9h1.23l-.61,2a1,1,0,0,1-.1.24l-4.12,7.42a1.64,1.64,0,0,1-.19.25l-6.77,7-.06.06-5.31,6.28-.08.11c-.3.45-2.67,4-6.11,8.55a56,56,0,0,0-6.12,11,.42.42,0,0,0,0,.12c-.15.54-1.37,4.75-4.59,7.1a1.16,1.16,0,0,0-.43.55,17.68,17.68,0,0,1-3.57,5.81l-6.14,6.15-7.14,7.13a1.21,1.21,0,0,0-.32.57l-1.13,4.52c0,.05,0,.09,0,.13l-3.28,8.74a1.23,1.23,0,0,0,.6,1.53l.79.39a1.22,1.22,0,0,1,.68,1.1v4.88a1.24,1.24,0,0,0,.36.87l.51.51a1.22,1.22,0,0,1,.36.86v6.87h1.23v7.37h-1.23v-3.17a1.23,1.23,0,0,0-.36-.87l-.51-.51a1.24,1.24,0,0,1-.36-.87v-3.08a1.34,1.34,0,0,0,0-.2l-1.2-7.17a1.49,1.49,0,0,1,0-.21v-2.35a1.23,1.23,0,0,0-1.22-1.23h0a1.23,1.23,0,0,0-1.23,1.23v3.47a1.25,1.25,0,0,1-.08.42l-2.51,6.9-.65,1.81-.59,1.61a1,1,0,0,0-.05.16l-1.64,7.4a1.23,1.23,0,0,1-2.23.41l-.52-.79a1.23,1.23,0,0,1-.15-1.07l2.47-7.41a10.34,10.34,0,0,0,.39-1.55l.34-2.11a12.59,12.59,0,0,1,1.15-3.58l1.61-3.21h1.23v-4.41a1.23,1.23,0,0,1,.36-.87l.51-.51a1.23,1.23,0,0,0,.36-.87v-3.18h1.23V511.6a1.24,1.24,0,0,1,.1-.5l4.72-10.62a1.51,1.51,0,0,1,.25-.37l4.71-4.7a.41.41,0,0,1,.1-.09l5.88-4.71a1.2,1.2,0,0,0,.33-.41l2.31-4.61.07-.13,4.84-7.25s.05-.08.07-.13l4.88-9.76,4.86-9.71a1.14,1.14,0,0,1,.15-.23l6-7.23.08-.08L510,443.8l.13-.12,4.65-3.49a1.07,1.07,0,0,0,.32-.35Z"/>
    <polygon class="cls-96" points="522.36 433.9 522.36 433.9 522.36 435.13 523.59 435.13 523.59 436.36 523.59 437.59 524.82 437.59 524.82 441.28 526.05 441.28 526.05 443.74 525.72 446.59 527.28 447.42 527.28 448.65 528.51 449.88 528.51 449.88 528.51 451.11 529.74 451.11 529.74 443.74 528.51 441.28 523.59 432.68 522.36 431.44 522.36 432.68 522.36 433.9"/>
    <polygon class="cls-96" points="532.2 456.03 532.2 454.8 533.42 454.8 534.65 456.03 535.88 457.26 534.65 458.49 533.42 459.71 532.2 457.26 532.2 456.03"/>
    <path class="cls-96" d="M525.56,461.62l.49,3-1.23,1.23-2.46,2.46a3.81,3.81,0,0,0-2.46,1.23c-1.23,1.23-2.45,4.91-2.45,4.91v2.46s-1.58.81-1.41.41-1-4.1.18-6.55S522.61,463.52,525.56,461.62Z"/>
    <path class="cls-96" d="M519.9,475.69s-1.23-1.23,3.69-6.14a63.93,63.93,0,0,1,8.6-7.38s4.92-4.91,6.15-4.91,6.15-3.69,6.15-3.69l2.45-2.46h8.61l-2.46,2.46-3.69,1.23h-2.46a1.2,1.2,0,0,0-1.23,1.23c0,1.23,0,1.23-6.14,3.68s-11.36,9-11.36,9l-8.31,7Z"/>
    <path class="cls-101" d="M529.21,497.35l53.38-42.55,1.23-1.23,2.46,1.23-33.19,27-3.69,2.46L531,499.05s1.22,7.37-1.23,9.83-12.29,3.69-12.29,3.69l-28.27,23.35L485.49,547,483,551.9H481.8l4.92-14.75,2.46-3.69-.68-1.15L515,510.11a4.29,4.29,0,0,0,2.46,1.23c1.22,0,6.14-1.23,7.37-2.46s4.92-2.46,4.92-4.92S529.21,497.35,529.21,497.35Z"/>
    <path class="cls-102" d="M517.45,510.11a8,8,0,0,1,3.68-6.15,9,9,0,0,1,7.38-1.23l-1.23,2.46-1.23,2.46s3.69-1.23,3.69-3.69,0-3.68-2.46-3.68-9.83,3.68-11.06,7.37-1,2.59-.51,3.14a2.86,2.86,0,0,0,1.74.55h1.22l-1.22-1.23Z"/>
    <path class="cls-103" d="M516,508.27a10.7,10.7,0,0,1,4.4-5,47.89,47.89,0,0,1,6.39-2.88s1.57-.42,2.24.36.53.83.53.83l-1.09-2.5v-1.23s-6.17-1.15-9.23,1.88-3.06,5.49-3.06,5.49l-1.34.95.11,2.74Z"/>
    <path class="cls-104" d="M545.71,510.11s2.46-7.38,3.69-12.29,50.4-38.11,50.4-38.11l8.6-1.22Z"/>
    <path class="cls-104" d="M586.28,495.36l29.49-22.13s1.23,4.92,0,7.38-16,8.6-28.27,19.67l-1.22-1.23Z"/>
    <path class="cls-105" d="M534.65,563s23.36-28.27,27-30.73,0-3.69,0-3.69S529.74,561.73,534.65,563Z"/>
    <polygon class="cls-105" points="586.62 438.28 575.56 447.87 582.05 449.93 586.27 449.88 591.19 446.83 594.29 442.85 595.32 440.05 601.02 440.05 602.25 436.36 586.62 438.28"/>
    <path class="cls-106" d="M572.76,440.05l16-4.92,9.84-2.46h17.2s11.07,3.69,12.29,3.69,7.38,2.46,7.38,2.46l1.23,2.46-8.61-1.23H613.32l-27.93,19.48-47.88,37a6.07,6.07,0,0,1-3.68,1.26h-1.64s39.17-32.18,50.4-40.56c10.58-7.91,21.53-14.16,22.12-14.75a17.69,17.69,0,0,0,2.46-3.69l-6.54,2.11L602,436.8l-14.46.79Z"/>
    <path class="cls-107" d="M583.52,452.73l15.27-10.91,1.55-1,.68.42,6.15-2.46s-3,4.52-5.8,5.95-14.31,8.77-14.31,8.77l-2,1.26h-3.69l-3.74.74Z"/>
    <path class="cls-108" d="M587.5,456l17.21-9.84s7.43-5.82,8-5.37,2.28-1.56,7-.55,2.23-.22,2.23-.22a12.39,12.39,0,0,1,1.23,3.69,7.41,7.41,0,0,1-4.92,6.14c-3.69,1.23-12.29,8.61-12.29,8.61l-1.23,1.22H599.8l-8.53,5.89-13.83,9.74s-20.66,15.1-28,21.25l-1.23,4.91L546.94,504v-3.68l2.46-13.53S582.59,458.49,587.5,456Z"/>
    <path class="cls-109" d="M518.33,511.07a3.26,3.26,0,0,1-.44-.63,3.17,3.17,0,0,1,.78-4c1-.95,1.13-1.72,2.46-2.46,2.11-1.17,5.4-2,6.15-1.23h1.23s.29,3-1.7,4-.76.93-.76.93l0,.32S521.67,512,518.33,511.07Z"/>
    <path class="cls-110" d="M533.42,500.28l15.81-12-2,13.49.44,2.22-2.43,8.18L540.8,522.4l-7.38,8.6-17.2,14.75-16,13.52s-1.23-4.91-7.38-8.6,0,1.23,0,1.23-6.14,7.37-6.14,9.83,0,2.46-2.46,1.23-4.92,0-2.46-2.46l-2.46,1.23L483,551.9l6.15-16,17.13-13.57,11.06-8.85S532.19,512.57,533.42,500.28Z"/>
    <path class="cls-111" d="M621.92,447.42s-17.21,11.07-20.9,16-15.73,12.93-15.73,12.93l-20.13,17.48-19.45,16.3L540.8,522.4l-2.46,11.06L527.28,563s-4.92,13.52-6.15,14.75,9.84-8.61,13.52-8.61-1.23-1.22,3.69-7.37S559,535.07,559,535.07l6.42-5.3,1.23-11.06s2.46-4.91,2.46-8.6,7.37-12.29,7.37-12.29L601,473.23l13.52-12.29S612.09,458.49,621.92,447.42Z"/>
    <path class="cls-112" d="M524.67,538.5l13.67-12.41,2-1.75-4.87,17.48L527.28,563l-4.82,14-3.79,8.08s-2.45,2.46-6.14-4.91l-6.15,3.68v-3.68l20.9-28.27S529.44,541.08,524.67,538.5Z"/>
    <path class="cls-113" d="M518.67,543.29l.08,1,1,12.43a2.45,2.45,0,0,0,1.34,2l1.23.61-3.69,4.92-2.2-16.82a3.22,3.22,0,0,1,.9-2.77Z"/>
    <path class="cls-114" d="M482.08,551.22l-.28.68H483l-.83,2.42-1.58,3.87-.78,2.35L478.11,563l-2.45-1.23-2.46-2.46s2.46,1.23,3.69,0a17.92,17.92,0,0,0,2.45-3.69l3-5.46Z"/>
    <path class="cls-115" d="M469.51,547l-.12.12-1.11,1.11v11.06l1.23-1.23a10.07,10.07,0,0,0,2.07-2.62c.39-1.06-.23-10-.23-10Z"/>
    <path class="cls-116" d="M463.37,537.15l4.91,11.06v11.06l-3.69,1.23s-4.91,2.46-4.91,3.69a1.2,1.2,0,0,1-1.23,1.23v-9.84l-1.23-1.22v-3.69L456,547v-1.23h1.23v-1.23l1.23-1.23v-2.45h1.23s-1.23-1.23,0-1.23c.59,0,.9-.57,1.05-1.16a1.78,1.78,0,0,1,1.73-1.3Z"/>
    <path class="cls-117" d="M462.14,526.09V522.4h2.45s-1.22,3.69,0,6.14a9.52,9.52,0,0,1,1.23,3.69v3.69l.39,1.53.83,1.49v3.12h1.23l1.23,4.92-1.23,1.23s-3.69-9.83-4.91-11.06-2.46,1.23-3.69,2.46-1,3.93-1.71,4.42l-.75.49v-2.46l1.23-3.68,1.06-3.18.17-.51,1.23-3.69.93-3.17Z"/>
    <path class="cls-118" d="M567.84,559.27s33.18-22.12,52.85-27l2.46-1.23-4.92-8.6s-8.6-6.15-13.52-2.46-36.87,36.87-36.87,36.87Z"/>
    <path class="cls-119" d="M559.24,571.56s30.72-17.2,43-20.89,12.29-6.15,12.29-6.15,1.23-4.91-6.14-1.23-40.56,20.9-40.56,20.9Z"/>
    <path class="cls-120" d="M517.45,588.77s7.37-8.6,8.6-8.6,8.6,11.06,4.92,16-7.38,14.75-7.38,14.75,13.52-16,18.44-19.66,11.06-13.52,11.06-13.52-15.34-8.31-17.5-8.46S519.9,575.25,517.45,588.77Z"/>
    <path class="cls-121" d="M521.13,629.33l29.5-29.5c2.46-2.46,46.71-25.81,47.94-25.81s-45.78,16.37-55.46,27.24S523.59,620.73,521.13,629.33Z"/>
    <path class="cls-122" d="M529.74,603.52v11.06s-6.15,8.6-8.61,12.29-1.23,1.23-1.23,1.23v-8.6S524.82,607.21,529.74,603.52Z"/>
    <path class="cls-123" d="M517.15,585.4l-.93,40.24s.59,4.62,3.36.47,1.55,2,.32,3.22-2.45,0-3.68,2.46,0,6.14-1.23,6.14-3.69,3.69-4.92,3.69h-2.46l-16-9.83-1.22-2.46v-2.46s2.45-1.23,2.45-14.75-1.23-19.66-1.23-19.66-4.91-23.36-8.6-24.58-5.06-4.6-4.37-5.38,5.6-3.23,5.6-3.23,6.15-7.37,8.6-8.6,9.84,12.29,9.84,13.52,3.68,13.52,3.68,16,6.15,0,6.15,0Z"/>
    <path class="cls-124" d="M492.86,551.9s12.29,14.75,12.29,18.43,1.23,17.21,1.23,18.44S505.15,619.5,502.7,622s-1.23,2.45,0-7.38,1.23-28.27,1.23-33.18-4.92-19.67-11.07-25.82S492.86,551.9,492.86,551.9Z"/>
    <path class="cls-125" d="M486.72,561.73s11.06,13.52,11.06,24.58,1.23,25.81-2.46,39.33c0,0-3.69,6.15-3.69,3.69s3.69-12.29,3.69-18.44,2.46-19.66-1.23-28.27c0,0-3.68-11.06-6.14-14.74a44.39,44.39,0,0,0-4.92-6.15Z"/>
    <path class="cls-126" d="M478.11,563s14.75,19.66,14.75,32-3.29,32.59-2.26,32.89.59,3.09.59,3.09-3.24-.34-3.24-1.57,3.68-3.69,1.23-27c2.45-6.15-4.92-24.58-4.92-25.81S478.11,563,478.11,563Z"/>
    <path class="cls-127" d="M485.49,620.73S488,617,488,607.21s-.08-16.62-1.88-24.9-10-20.36-10-20.36-5.37-3.91-11.52,1-8.6,14.75-9.83,18.44-1.23,24.58-1.23,27-1.23,12.29,1.23,18.43,4.92,13.52,2.46,1.23-2.46-12.29-2.46-14.75,0-17.21,1.23-19.66,7.38-18.44,8.6-19.67,4.92-3.69,7.38-2.46-1.23-1.23-1.23-1.23l-2.46-1.23A25.56,25.56,0,0,0,456,586.31V581.4s4.92-14.75,11.06-17.21c0,0,3.69,0,4.92,1.23s9.83,13.52,9.83,13.52l2.46,17.2s1.23,12.3,1.23,18.44Z"/>
    <path class="cls-128" d="M464.59,577.71h6.15s-6.15,3.69-8.6,13.52-2.46,33.18,1.23,43l2.45,4.91s3.69,7.38,0,6.15-8.18-16.1-8.18-16.1-4-19.35-2.21-33S463.37,580.17,464.59,577.71Z"/>
    <path class="cls-129" d="M470.74,576.48s14.75,8.6,11.06,46.7c-1.23,14.75-6.14,24.59-9.83,22.13a25.13,25.13,0,0,1-6.15-6.15v4.92s-1.23,3.69,3.69,4.92,9.83-4.92,9.83-4.92,4.92-7.37,4.92-25.81,0-34.42-6.15-43-9.83-6.15-9.83-6.15l-6.14,8.61,6.78-.27Z"/>
    <path class="cls-130" d="M456.24,584.89s5.9-14.56,9.58-15.79,9.84,1.23,9.84,2.46a1.2,1.2,0,0,0,1.23,1.23l2.95,5.46,2.5,5.46-.54-6s-7.67-12.83-12.44-13.18-12.83,15.64-12.83,15.64Z"/>
    <polygon class="cls-131" points="485.49 631.79 502.7 644.08 507.61 641.62 490.4 630.56 485.49 631.79"/>
    <path class="cls-132" d="M489.18,618.27,488,630.56,485.49,633l17.21,9.83s-1.23,4.92-16,7.38-17.21,3.68-17.21,3.68v-3.68s7.38-1.23,9.83-6.15,3.74-11.36,4.33-12.44.59-8.46.59-8.46l3.1-6.73,3.05.59Z"/>
    <path class="cls-133" d="M469.51,660.06s-1.23-2.46,2.46-3.69,23.35-1.23,30.73-6.14a82.11,82.11,0,0,1,13.52-7.38l-.69-4.72s-10.67,5.9-13,5.31-24.44,6.79-28.12,8a8.52,8.52,0,0,0-4.92,3.69l-1.23,4.92Z"/>
    <path class="cls-134" d="M523.59,634.25s17.21-7.38,19.67-7.38,8.6-3.69,12.29-2.46,0-2.45,0-2.45l19.66-1.23,2.46-1.23H554.32c-1.23,0-4.92-1.23,4.92-9.84s16-14.74,16-14.74,2.46-1.23,1.23-1.23-13.52,7.37-16,9.83-7.37,6.14-9.83,9.83-2.46,7.38-8.6,9.83-17.65,7.43-17.65,7.43l-2,2.41v2.46h2.46Z"/>
    <path class="cls-135" d="M596.13,582.86c1.44-.28,8.58-3.92,11-5.15S621.92,574,621.92,574l-1.23-3.69s-19.84,4.6-24.67,7.22C596,577.55,594.93,583.09,596.13,582.86Z"/>
    <path class="cls-135" d="M609.41,610.4s-26.82,4.18-29.28,12.78c0,0-1.23-1.22,3.69,0s9.83,2.46,12.29,3.69S617,622,617,622l3.69-1.23-9.83-9.84Z"/>
    <path class="cls-136" d="M599.8,628.1l18.43,8.61h12.29s-8.6-13.53-9.83-14.75-23.89,4.59-23.89,4.59Z"/>
    <path class="cls-137" d="M596.11,582.62s23.35-14.74,24.58-7.37,12.29,28.27,14.75,29.5,0,6.14,0,6.14a9.4,9.4,0,0,0,6.14,2.46c3.69,0,2.46,1.23,2.46,1.23l1.23,7.38V633s-1.23,3.69-14.75,3.69L617,615.81Z"/>
    <path class="cls-138" d="M621.92,637.93s12.29,7.38,14.75,6.15,2.46-1.23,0-3.69l-4.92-4.91Z"/>
    <polygon class="cls-139" points="612.09 502.73 615.77 502.73 615.77 502.73 615.77 505.19 615.77 506.42 615.77 507.65 613.32 507.65 612.09 505.19 612.09 502.73"/>
    <path class="cls-140" d="M618.23,569.1l1.23,4.92s14.75,1.23,14.75,0c0,0,2.46-1.23,2.46-2.46S633,567.88,618.23,569.1Z"/>
    <path class="cls-141" d="M624.38,588.77l3.68,3.69s12.3,0,12.3-2.46S624.38,588.77,624.38,588.77Z"/>
    <path class="cls-142" d="M640.36,559.27s1.22,18.44,4.91,19.67,2.46,0,2.46-1.23-3.69-11.06-3.69-16S641.58,556.81,640.36,559.27Z"/>
    <path class="cls-143" d="M636.77,607.75l5.75,5.31s-6.2,1.42-6.64-2.22S636.77,607.75,636.77,607.75Z"/>
    <path class="cls-144" d="M587.5,508.88s18.44,9.83,18.44,7.37,2.46-6.14,0-7.37-16-6.15-17.21-4.92S587.5,508.88,587.5,508.88Z"/>
    <path class="cls-144" d="M608.4,510.11v3.69a27.48,27.48,0,0,0,11.06,2.45c1.23-4.91-.54-4.74-.54-4.74l-9.29-2.63Z"/>
    <path class="cls-145" d="M650.19,572.79s7.37,0,6.14,8.61L655.1,590l-.34,1.82,2.21,2.87s5.51-4.69,3-15.75-7.37-8.61-7.37-8.61Z"/>
    <path class="cls-146" d="M650.19,633s20.89,13.52,24.58,13.52v1.23l-24.58.1Z"/>
    <path class="cls-147" d="M644,614.58,659.3,604.1l.72-.58h0s-8.53,7-9.79,10.86S649,649,649,649a3.81,3.81,0,0,1-2.46-1.23C645.27,646.54,644,614.58,644,614.58Z"/>
    <path class="cls-148" d="M662.48,556.81l6.14,1.23s-2.45,9.84,1.23,25.81,8.61,39.33,12.3,50.4l.15,14.09S666.17,634.25,662.48,556.81Z"/>
    <path class="cls-149" d="M669.85,560.5s-2.45-1.23-2.45,0,9.34,64.7,14.5,72.91l.25,14.36v9.83a27.74,27.74,0,0,0,4.91,1.23V604.75S671.08,565.42,669.85,560.5Z"/>
    <path class="cls-150" d="M693.21,619.5l4.91,1.23s12.29,23.35,23.36,33.18l2.45,1.23v8.61s-23.35,1.22-29.49-3.69Z"/>
    <path class="cls-151" d="M687.06,603.32v55.51s4.92,4.92,6.15,1.23,0-40.56,0-40.56V617l4.91,3.69s13.52,24.58,25.81,34.41l.59,4.23.64,6.83s50.4,3.69,72.52-2.45-3.69-1.23-3.69-1.23V644.08l-6.14-1.23-11.06-3.69s-18.44-45.47-19.67-50.39,16-40.56,16-40.56l-3.69-8.6s-1.23,6.14-60.22,4.91c-23.36,0-39.34,16-39.34,16S678.46,588.38,687.06,603.32Z"/>
    <path class="cls-152" d="M693.21,607.21S719,585.08,732.54,581.4s8.6,9.83,8.6,9.83l-43,29.5S694.44,615.81,693.21,607.21Z"/>
    <path class="cls-153" d="M724.82,661.73l.34,4.47H735s28.27-18.43,35.64-20.89-6.15-11.06-6.15-11.06S733.08,649.88,724.82,661.73Z"/>
    <path class="cls-154" d="M748.52,653.91s19.66-9.83,19.66-11.06v-2.46h0l-2.46-1.23s-17.2,9.84-19.66,13.52S748.52,653.91,748.52,653.91Z"/>
    <path class="cls-155" d="M744.83,649l20.89-11.07s2.46-4.91-20.89,8.61A1.7,1.7,0,0,0,744.83,649Z"/>
    <path class="cls-156" d="M683.37,553.13s13.52,34.41,19.67,41.79c0,0,17.21-6.15,25.81-16l-18.44-33.19S693.21,542.06,683.37,553.13Z"/>
    <path class="cls-157" d="M711.64,609.66s20.9-14.74,24.59-13.52,23.35,35.65,23.35,36.88-17.21,14.75-19.67,12.29S711.64,615.81,711.64,609.66Z"/>
    <polygon class="cls-158" points="722.71 548.21 739.91 577.71 755.89 576.48 760.81 575.25 744.83 545.75 721.48 545.75 722.71 548.21"/>
    <path class="cls-159" d="M762,544.52l6.14,12.29s5.16-6.93,5.66-8.38,0-5.14-4.43-5.14C764.49,543.29,762,544.52,762,544.52Z"/>
    <path class="cls-160" d="M677.23,556.81s8.6,28.27,11.06,30.73-8.87-.32-10-4.46-7.74-19.58-7.74-19.58-2.3-4.55,5.86-8.08Z"/>
    <path class="cls-161" d="M716.56,597.37s14.75-11.06,19.67-12.29,1.22,3.69,1.22,3.69l-19.66,12.29A2.69,2.69,0,0,1,716.56,597.37Z"/>
    <path class="cls-162" d="M715.33,594.92s17.21-9.84,19.67-11.07,0-2.45,0-2.45-18.44,8.6-20.9,11.06S715.33,594.92,715.33,594.92Z"/>
    <path class="cls-163" d="M716.56,630.56s16,18.44,18.44,19.67,1.23,1.22,1.23,1.22-12.3,12.3-12.3,9.84v-6.15s-11.57-12.31-16.85-20.29-9-14.12-9-14.12S710.41,629.33,716.56,630.56Z"/>
    <path class="cls-164" d="M760.81,590s28.27,44.25,32,45.48,1.23,2.45,1.23,2.45-1.23,0,0,1.23l2.46,2.46-1.23,1.23s-6.14,1.23-18.43-3.69c0,0-17.21-40.56-18.44-46.7,0,0-2-5.26-.38-8.16S759.58,588.77,760.81,590Z"/>
    <path class="cls-165" d="M760.81,585.08a37.36,37.36,0,0,0,8.6-16h1.23l2.46,7.38s23.35,27,27,33.18-3.69,27.05-3.69,27.05-3.88,1.91-11.16-9.49-21.19-30-23.45-36.07S760.81,585.08,760.81,585.08Z"/>
    <path class="cls-166" d="M759.58,581.4s6.91-23.06,11.44-28.74,19.29-14.28,23-4.45a50,50,0,0,1,6.15,24.58c0,14.75,8.6,22.13,9.83,20.9s6.15-14.75,6.15-16a1.2,1.2,0,0,1,1.23-1.23v-1.23l1.23-1.23v2.46l-2.46,8.6L813.66,590a16.39,16.39,0,0,1-1.23,6.14c-1.23,2.46-4.92,9.84-6.15,11.07s-3.68,6.14-4.91,3.68-30.29-31.66-31.12-41.64l-.84-.15s-3.69,13.52-9.83,16l-1.17-1.56Z"/>
    <path class="cls-167" d="M817.35,602.29l6.14,20.89s-4.91,4.92-4.91,11.07S826,652.68,826,652.68s-14.45,7.82-20.75,8.83-4,.22-4,.22l-4.77-11.5v-8.61L794,639.16a2.41,2.41,0,0,0,2.46-2.45c0-2.46,3.69-16,4.92-25.82l1.18,1.06S816.12,606,817.35,602.29Z"/>
    <path class="cls-168" d="M806.28,558c0-1.23,0-4.91,1.23-3.68s4.92,7.37,4.92,7.37h1.23L803.83,547l-8.61-13.52L794,532.23l-3.68,6.15,14.23,20.47Z"/>
    <path class="cls-169" d="M818.77,577.51s3.49,30.93,10.87,49.36l2.46,4.92s-4.92,4.92-4.92,7.37a5.39,5.39,0,0,0,1.23,3.69s-2.46,2.46-4.92,2.46-4.82-10.28-4.87-11.9,1.18-6.54,4.87-10.23l-6.14-20.89s-9.05,10-14.36,9.29c0,0,8.75-15.78,10.32-19.91S818.77,577.51,818.77,577.51Z"/>
    <path class="cls-170" d="M636.67,543.29s11.06,2.46,11.06,4.92-11.06,0-11.06-1.23Z"/>
    <path class="cls-171" d="M624.38,510.11a56.49,56.49,0,0,0,7.37,6.14c3.69,2.46-1.23,2.46-1.23,2.46s-4.77-.49-7.91-6.39S624.38,510.11,624.38,510.11Z"/>
    <path class="cls-172" d="M625.61,500.28s1.23-11.07,7.37-11.07,7.38,9.84,7.38,9.84-.15,11.09-4.92,12.29C630.52,512.57,626.84,512.57,625.61,500.28Z"/>
    <path class="cls-173" d="M638.61,479.43s6.66-3.74,6.66-5,7.38,2.46,7.38,4.92-3.69,3.69-8.61,6.15S638.61,479.43,638.61,479.43Z"/>
    <path class="cls-174" d="M637.9,480.61l4.91,4.92s-1.23,3.68-2.45,3.68-3.69-3.68-7.38-6.14C633,483.07,634.21,479.38,637.9,480.61Z"/>
    <path class="cls-175" d="M652.65,474.46s16,23.36,8.6,38.11c0,0,3.69-1.23,3.69,0v4.91l1.23,1.23S677.23,484.3,652.65,474.46Z"/>
    <path class="cls-176" d="M631.75,527.32s3.69,0,3.69,4.91v3.69S631.75,531,631.75,527.32Z"/>
    <path class="cls-177" d="M626.84,522.4c0,1.23,4.91,13.52,6.14,13.52s2.46,1.23,1.23,1.23-3.69,1.23-8.6-12.29V522.4Z"/>
    <path class="cls-178" d="M679.69,550.67s7.37-27,19.66-20.9,20.9,12.29,27,12.29c0,0,34.42,0,38.1-2.45s4.92-1.23,4.92-1.23v1.23s-2.46,4.91-52.85,4.91c0,0-19.67-2.46-35.64,7.38Z"/>
    <path class="cls-179" d="M693.21,491.67l19.66,2.46s7.38,17.21,13.52,20.89,29.5,11.07,38.1,11.07h4.92l-1.23,1.23S757.12,531,732.54,531s-30.73,1.23-35.65-7.37S693.21,491.67,693.21,491.67Z"/>
    <path class="cls-180" d="M609.63,430.22l32,2.45s1.23,6.15-3.68,6.15S609.63,430.22,609.63,430.22Z"/>
    <path class="cls-181" d="M656.33,435.13l6.15-7.37s14.75-1.23,17.21,0c1,.5,10,4.23,14.75,8.6,7,6.38,10.33,14.56,11.06,19.67L703,454.8s-7.37-14.75-24.58-17.21-22.13-1.23-22.13-1.23Z"/>
    <path class="cls-182" d="M645.27,452.34s43,0,44.25,29.5l.64,5.33,14.11.81s1.23-12.29-2.46-19.66-12.29-34.42-49.16-28.27Z"/>
    <path class="cls-183" d="M646.5,470.78s20.9,6.14,22.12,12.29l1,1.45,19.94,1s-2.46-43-44.25-33.19l-.91,16.47Z"/>
    <path class="cls-184" d="M703.54,458.48l-4.54-.05a1.34,1.34,0,0,0-1.23,1.94c2,4,6.19,12.77,6.33,14.41h0a2.31,2.31,0,0,0,2.31,2.14h1.68a1.35,1.35,0,0,0,1.34-1.14c.36-2.41.5-8.49-4.76-16.68A1.36,1.36,0,0,0,703.54,458.48Z"/>
    <path class="cls-185" d="M621.92,429l13.52-19.67s7.37,17.21,8.6,18.44a1.7,1.7,0,0,1,0,2.46l-3.68,1.23Z"/>
    <path class="cls-186" d="M642.52,387s4-7.13,7.67-4.67,27,19.67,27,19.67L676,404.41l-4.92,2.45Z"/>
    <path class="cls-187" d="M602.25,430.22s8.26-30.34,29.94-15.17l-1.67,16.4Z"/>
    <path class="cls-188" d="M636.67,362.62l6.14-8.61,4.92,7.38,2.46,6.14,22.12,16L685.83,397l1.23,2.46s-19.66-17.21-23.35-18.44-14.75-1.23-17.21-3.68S636.67,376.14,636.67,362.62Z"/>
    <polygon class="cls-14" points="605.94 373.68 614.54 371.22 614.54 385.97 597.34 397.03 605.94 373.68"/>
    <path class="cls-189" d="M548.17,421.61l-4.91,8.61s-9.52,2.59-15.49,2.7a2.32,2.32,0,0,1-2.29-2.89h0a5.06,5.06,0,0,1,2.84-3.39A63.36,63.36,0,0,1,548.17,421.61Z"/>
    <path class="cls-190" d="M521.78,423.78l4.78,2.39a1.3,1.3,0,0,1,.72,1.16v5.34l-2.46-1.22-4.45-3.3a1.29,1.29,0,0,1-.47-1v-2.21A1.3,1.3,0,0,1,521.78,423.78Z"/>
    <path class="cls-191" d="M527.28,436.36s17.21-2.46,17.21-3.69,2.45-2.45,2.45-2.45,2.46,2.45,2.46,1.23-1.23-3.69,0-3.69,3.69,4.91,3.69,6.14-20.9,29.75-20.9,17.21A53.4,53.4,0,0,0,531,445Z"/>
    <path class="cls-192" d="M550.63,437.59,558,426.53s12.63-12.76,12.46-13.14,9.95-6.75,9.95-6.75L558,431.45s-6.15,11.06-9.84,12.29Z"/>
    <path class="cls-193" d="M680.92,419.15l14.75-9.83s14.74,11.06,18.43,24.58c0,0-6.78-10.42-12-14.43s-11.36,4.6-11.36,4.6l-3.69.93Z"/>
    <polygon class="cls-194" points="701.81 441.28 691.98 426.53 700.58 421.61 712.87 436.36 698.12 414.24 684.6 422.84 701.81 441.28"/>
    <path class="cls-195" d="M699.08,402l35.74,13.4s0,0,0,0C732,415,699,409.06,692,403.18l.65-.44A7.1,7.1,0,0,1,699.08,402Z"/>
    <path class="cls-196" d="M721.48,429l1.23-8.61h3.68a90,90,0,0,1,13.52,32c3.69,18.44,0,45.48-3.68,50.39s-2.46,2.46-2.46,2.46S735,452.34,721.48,429Z"/>
    <path class="cls-197" d="M732.15,463.23c2.6,2.95,6.53,7.55,6.53,7.55l-.25.75a1.91,1.91,0,0,1-3.16.75l-5.19-5.19V464A1.18,1.18,0,0,1,732.15,463.23Z"/>
    <path class="cls-198" d="M732.54,476.92l6.14,4.92s1.23,3.69-3.68,2.46a6.49,6.49,0,0,1-4.92-6.15l1.23-2.46Z"/>
    <path class="cls-199" d="M778,468.32s7.38,2.46,8.61,6.14-1.23,14.75-2.46,14.75-7.37-2.46-7.37-2.46,2.45-12.29,0-19.66Z"/>
    <path class="cls-200" d="M746.06,424.07s20.89,36.87,14.75,65.14v7.38l8.6,1.23s-2.21,16.07-4.18,18.48,7.87,1.18,7.87,1.18l3.69-28.27L787.85,488s-2.46,23.36-6.15,27-1.23,8.61-1.23,8.61l29.5-2.46s16-39.33-6.14-68.83l1.23-7.37a67.19,67.19,0,0,0-8.61-16S794,451.11,794,449.88s-1.23-22.12-1.23-22.12-6.14-9.83-14.75-13.52L767,415.47S741.14,398.26,719,395.8s4.91,11.06,4.91,11.06Z"/>
    <path class="cls-201" d="M774.33,488h13.52s-1.53,32.89-7.38,36.88l-12.29-1.23S778,501.5,774.33,488Z"/>
    <path class="cls-202" d="M769.41,497.82S767,515,764.49,517.48H752.2a129.13,129.13,0,0,0,6.15-46.7c-.8-16.16-3.46-36.22-17-51.23l6.78.29s14,17.65,15.15,50.94c.24,7.24-1,14.62-2.17,23.4l-.29,2.41Z"/>
    <path class="cls-203" d="M462.14,590a49.12,49.12,0,0,1,2.45-7.38c1.23-2.45,4.92-4.91,4.92-4.91l1.23-1.23s7.92,5.65,10.72,20.65-1.18,36.28-1.18,36.28-3.15,18-10,10.62-8.95-14.11-9.15-23S459.68,597.37,462.14,590Z"/>
    <path class="cls-204" d="M501.41,238.22s5.21-5,6.95-3.36,5.22,0,5.22,0a16.46,16.46,0,0,0,.87-4.19c0-1.68,0-1.68-1.74,0s-3.48,1.68-5.22,1.68S498.8,237.38,501.41,238.22Z"/>
    <path class="cls-40" d="M492.32,277.08"/>
    <polygon class="cls-205" points="517.76 362.66 517.76 366.04 521.14 367.73 519.45 366.04 517.76 362.66 517.76 362.66"/>
    <polygon class="cls-206" points="521.14 362.66 521.14 366.04 524.52 367.73 526.21 369.42 522.83 366.04 521.14 362.66"/>
    <path class="cls-207" d="M601,374.91s1.73,9.83-4.67,15.36-29,25-29,25,31.2-30.53,30-34.22S601,374.91,601,374.91Z"/>
    <polygon class="cls-208" points="586.27 394.57 567.84 411.78 560.46 413.01 585.73 391.38 586.27 394.57"/>
    <polygon class="cls-209" points="597.34 381.05 587.73 394.25 586.27 389.66 596.35 380.09 597.34 381.05"/>
    <polygon class="cls-210" points="630.52 317.14 645.27 350.32 636.67 356.47 625.61 336.81 630.52 317.14"/>
    <polygon class="cls-211" points="614.94 314.17 620.03 337.39 624.38 319.6 614.94 314.17"/>
    <path class="cls-212" d="M617,260.6s-13.52,34.42,0,54.08c4.92,8.6,12.29-1.23,12.29-1.23s11.07-24.58,7.38-35.64-4-24.58-12.29-24.58C618.23,253.23,617,260.6,617,260.6Z"/>
    <path class="cls-213" d="M617,285.18s2.46-19.66,9.84-16,4.91,29.5,4.91,29.5-3.69,9.84-8.6,4.92S617,285.18,617,285.18Z"/>
    <path class="cls-214" d="M602.25,279s6.15-40.56,20.9-29.5l6.14,3.69s-13.52-3.69-18.43,24.58c0,0-2.41,24.33,1.87,28.76s-8.26,0-8.26,0S601,291.33,602.25,279Z"/>
    <path class="cls-212" d="M605.94,280.27s4.92,7.37,3.69,14.75-2.46,12.29-4.92,6.14S601,281.5,605.94,280.27Z"/>
    <polygon class="cls-215" points="580.13 265.52 599.79 293.79 599.79 299.93 578.9 269.2 576.44 266.75 580.13 265.52"/>
    <path class="cls-216" d="M478.11,197.92l50.4-12.29-8.61,18.43s-47.88,10.57-47.29,9.59S478.11,197.92,478.11,197.92Z"/>
    <polygon class="cls-217" points="471.97 220.04 467.05 237.25 513.76 234.79 518.67 205.29 473.2 213.9 469.51 221.27 473.2 220.04 471.97 220.04"/>
    <path class="cls-218" d="M518,223.88s3.09-12.44,6.78-13.67,11.06,2.46,8.6,14.75c0,0,13.52,3.68,12.29,2.45s-2.45-14.74-2.45-14.74,23.35,0,28.27,7.37,1.23-25.81,1.23-25.81-38.11-8.6-44.25-6.15S518,223.88,518,223.88Z"/>
    <path class="cls-219" d="M574,226.19s8.41,1.05,7.38-6.15c-1.23-8.6-1.23-25.81-1.23-25.81s-34.42-13.52-45.48-9.83l-1.23,6.14L574,197.92Z"/>
    <path class="cls-220" d="M582.59,213.89l6.14-9.83,13.52-3.69S590,170.88,548.17,167.19s-77.43,23.35-84.8,33.18l-4.92,4.92,18.44-9.83-1.23,8.6,57.76-17.21,9.84-12.29,39.33,14.75Z"/>
    <path class="cls-221" d="M601,216.35l-13.52,20.9-1.22,27,22.12-13.52S607.17,227.41,601,216.35Z"/>
    <polygon class="cls-3" points="572.81 232.78 568.2 247.88 581.62 294.02 585.29 316.15 566.32 347.55 564.9 349.52 564.9 371.23 570.72 385.87 609.3 339.32 605.95 317.09 602.25 299.93 572.81 232.78"/>
  </g>

</svg>
